<svg width="24" height="25" viewBox="0 0 24 25" fill="none" xmlns="http://www.w3.org/2000/svg">
<path d="M2.16479 13.3315H18.8336" stroke="#3d5cb7" stroke-width="1.47078" stroke-miterlimit="10" stroke-linecap="round" stroke-linejoin="round"/>
<path d="M18.8336 11.047V18.0577C18.8042 20.8522 18.0394 21.5581 15.1272 21.5581H5.87118C2.91002 21.5581 2.16479 20.8228 2.16479 17.9008V11.047C2.16479 8.39958 2.78252 7.54653 5.10635 7.40926C5.34168 7.39945 5.59664 7.38965 5.87118 7.38965H15.1272C18.0884 7.38965 18.8336 8.12504 18.8336 11.047Z" stroke="#3d5cb7" stroke-width="1.47078" stroke-linecap="round" stroke-linejoin="round"/>
<path d="M21.7751 7.56651V14.4203C21.7751 17.0677 21.1574 17.9208 18.8336 18.0581V11.0474C18.8336 8.12541 18.0884 7.39002 15.1272 7.39002H5.87116C5.59661 7.39002 5.34165 7.39983 5.10632 7.40963C5.13574 4.61515 5.90057 3.90918 8.81271 3.90918H18.0688C21.0299 3.90918 21.7751 4.64457 21.7751 7.56651Z" stroke="#3d5cb7" stroke-width="1.47078" stroke-linecap="round" stroke-linejoin="round"/>
<path d="M5.35144 18.4307H7.0379" stroke="#3d5cb7" stroke-width="1.47078" stroke-miterlimit="10" stroke-linecap="round" stroke-linejoin="round"/>
<path d="M9.13611 18.4307H12.5091" stroke="#3d5cb7" stroke-width="1.47078" stroke-miterlimit="10" stroke-linecap="round" stroke-linejoin="round"/>
</svg>
