<svg width="23" height="23" viewBox="0 0 28 28" fill="none" xmlns="http://www.w3.org/2000/svg">
<path fill-rule="evenodd" clip-rule="evenodd" d="M14.2479 27.6803C21.8031 27.6803 27.9279 21.5555 27.9279 14.0003C27.9279 6.44505 21.8031 0.320312 14.2479 0.320312C6.69261 0.320312 0.567871 6.44505 0.567871 14.0003C0.567871 21.5555 6.69261 27.6803 14.2479 27.6803ZM14.248 24.9441C20.2922 24.9441 25.192 20.0443 25.192 14.0001C25.192 7.95587 20.2922 3.05607 14.248 3.05607C8.20379 3.05607 3.304 7.95587 3.304 14.0001C3.304 20.0443 8.20379 24.9441 14.248 24.9441ZM15.616 12.6321V7.16007H12.88V15.3681H19.72V12.6321H15.616Z" fill="#8F92A1"/>
</svg>
