<svg width="27" height="26" viewBox="0 0 27 26" fill="none" xmlns="http://www.w3.org/2000/svg">
<path d="M9.15747 12.1005C9.15747 12.9136 9.79104 13.5788 10.5619 13.5788H12.1458C12.8216 13.5788 13.3707 12.998 13.3707 12.2906C13.3707 11.5197 13.0328 11.2452 12.5365 11.0657L10.0022 10.1787C9.49537 9.99916 9.15747 9.72462 9.15747 8.95378C9.15747 8.2463 9.70656 7.66553 10.3824 7.66553H11.9663C12.7477 7.67609 13.3812 8.33077 13.3812 9.14385" stroke="#3D5CB7" stroke-width="1.58391" stroke-linecap="round" stroke-linejoin="round"/>
<path d="M11.2693 13.6313V14.4127" stroke="#3D5CB7" stroke-width="1.58391" stroke-linecap="round" stroke-linejoin="round"/>
<path d="M11.2693 6.83105V7.65469" stroke="#3D5CB7" stroke-width="1.58391" stroke-linecap="round" stroke-linejoin="round"/>
<path d="M11.2588 19.0483C15.9184 19.0483 19.6958 15.2709 19.6958 10.6113C19.6958 5.95168 15.9184 2.17432 11.2588 2.17432C6.59915 2.17432 2.82178 5.95168 2.82178 10.6113C2.82178 15.2709 6.59915 19.0483 11.2588 19.0483Z" stroke="#3D5CB7" stroke-width="1.58391" stroke-linecap="round" stroke-linejoin="round"/>
<path d="M14.416 21.0544C15.3664 22.3955 16.9186 23.2719 18.6926 23.2719C21.5753 23.2719 23.9195 20.9277 23.9195 18.045C23.9195 16.2921 23.0536 14.7399 21.7337 13.7896" stroke="#3D5CB7" stroke-width="1.58391" stroke-linecap="round" stroke-linejoin="round"/>
</svg>
