<svg width="28" height="28" viewBox="0 0 28 28" fill="none" xmlns="http://www.w3.org/2000/svg">
<path fill-rule="evenodd" clip-rule="evenodd" d="M20.5892 12.5167C22.4844 12.5167 24.0207 14.053 24.0207 15.9482V22.8112C24.0207 24.7064 22.4844 26.2427 20.5892 26.2427H6.86315C4.96798 26.2427 3.43164 24.7064 3.43164 22.8112V15.9482C3.43164 14.053 4.96798 12.5167 6.86315 12.5167V9.08518C6.86315 5.29484 9.93582 2.22217 13.7262 2.22217C17.5165 2.22217 20.5892 5.29484 20.5892 9.08518V12.5167ZM13.726 4.50974C16.2529 4.50974 18.3014 6.55819 18.3014 9.08508V12.5166H9.15068V9.08508C9.15068 6.55819 11.1991 4.50974 13.726 4.50974ZM20.589 14.8043H6.86301C6.2313 14.8043 5.71918 15.3164 5.71918 15.9481V22.8111C5.71918 23.4428 6.2313 23.9549 6.86301 23.9549H20.589C21.2208 23.9549 21.7329 23.4428 21.7329 22.8111V15.9481C21.7329 15.3164 21.2208 14.8043 20.589 14.8043Z" fill="#8F92A1"/>
</svg>
