<svg width="28" height="29" viewBox="0 0 28 29" fill="none" xmlns="http://www.w3.org/2000/svg">
<path fill-rule="evenodd" clip-rule="evenodd" d="M3.44282 7.56766C3.44282 6.93595 3.95492 6.42383 4.58665 6.42383H22.8768C23.5086 6.42383 24.0207 6.93595 24.0207 7.56766V20.5207C24.0207 21.7842 22.9965 22.8084 21.733 22.8084H5.71931C4.45587 22.8084 3.43164 21.7842 3.43164 20.5207V7.93852C3.43164 7.88405 3.43545 7.83047 3.44282 7.77803V7.56766ZM5.71918 10.1112V20.5206H21.7329V10.1115L16.1527 15.6918C14.8126 17.0319 12.6398 17.0319 11.2998 15.6918L5.71918 10.1112ZM7.51759 8.67466H19.9347L14.535 14.0744C14.0883 14.5211 13.3641 14.5211 12.9174 14.0744L7.51759 8.67466Z" fill="#8F92A1"/>
</svg>
