<svg width="23" height="23" viewBox="0 0 26 26" fill="none" xmlns="http://www.w3.org/2000/svg">
<path fill-rule="evenodd" clip-rule="evenodd" d="M20.088 0.991699C23.1101 0.991699 25.56 3.4416 25.56 6.4637C25.56 9.4858 23.1101 11.9357 20.088 11.9357C17.0659 11.9357 14.616 9.4858 14.616 6.4637C14.616 3.4416 17.0659 0.991699 20.088 0.991699ZM20.0879 3.7277C18.5768 3.7277 17.3519 4.95264 17.3519 6.4637C17.3519 7.97475 18.5768 9.1997 20.0879 9.1997C21.5989 9.1997 22.8239 7.97475 22.8239 6.4637C22.8239 4.95264 21.5989 3.7277 20.0879 3.7277ZM6.40804 0.991703C9.43014 0.991703 11.88 3.4416 11.88 6.4637C11.88 9.48581 9.43014 11.9357 6.40804 11.9357C3.38594 11.9357 0.936039 9.48581 0.936039 6.4637C0.936039 3.4416 3.38594 0.991703 6.40804 0.991703ZM6.40804 3.7277C4.89698 3.7277 3.67204 4.95265 3.67204 6.4637C3.67204 7.97475 4.89698 9.1997 6.40804 9.1997C7.91909 9.1997 9.14404 7.97475 9.14404 6.4637C9.14404 4.95265 7.91909 3.7277 6.40804 3.7277ZM11.88 20.1437C11.88 17.1216 9.43014 14.6717 6.40804 14.6717C3.38593 14.6717 0.936035 17.1216 0.936035 20.1437C0.936035 23.1658 3.38593 25.6157 6.40804 25.6157C9.43014 25.6157 11.88 23.1658 11.88 20.1437ZM3.67203 20.1435C3.67203 18.6325 4.89698 17.4075 6.40803 17.4075C7.91908 17.4075 9.14403 18.6325 9.14403 20.1435C9.14403 21.6546 7.91908 22.8795 6.40803 22.8795C4.89698 22.8795 3.67203 21.6546 3.67203 20.1435ZM20.088 14.6717C23.1101 14.6717 25.56 17.1216 25.56 20.1437C25.56 23.1658 23.1101 25.6157 20.088 25.6157C17.0659 25.6157 14.616 23.1658 14.616 20.1437C14.616 17.1216 17.0659 14.6717 20.088 14.6717ZM20.0879 17.4075C18.5768 17.4075 17.3519 18.6325 17.3519 20.1435C17.3519 21.6546 18.5768 22.8795 20.0879 22.8795C21.5989 22.8795 22.8239 21.6546 22.8239 20.1435C22.8239 18.6325 21.5989 17.4075 20.0879 17.4075Z" fill="#3D5CB7"/>
</svg>
