<?xml version="1.0" encoding="utf-8"?>
<!-- Generator: Adobe Illustrator 26.0.3, SVG Export Plug-In . SVG Version: 6.00 Build 0)  -->
<svg version="1.1" id="Layer_1" xmlns="http://www.w3.org/2000/svg" xmlns:xlink="http://www.w3.org/1999/xlink" x="0px" y="0px"
	 viewBox="0 0 1842.9 480" style="enable-background:new 0 0 1842.9 480;" xml:space="preserve">
<style type="text/css">
	.st0{fill:url(#SVGID_1_);}
	.st1{fill:#000102;}
	.st2{fill:#1994D0;}
	.st3{fill:#1794D6;}
	.st4{enable-background:new    ;}
	.st5{fill:#EF5764;}
</style>
<linearGradient id="SVGID_1_" gradientUnits="userSpaceOnUse" x1="493.9204" y1="390.7574" x2="493.9204" y2="-89.171" gradientTransform="matrix(1 0 0 -1 -134.53 390.78)">
	<stop  offset="0" style="stop-color:#7DC6E9"/>
	<stop  offset="1" style="stop-color:#1794D6"/>
</linearGradient>
<path class="st0" d="M700.8,261.6c-12.1,43.3-32.1,84.1-58.9,120.2c-20.4,27.3-39.5,52.8-68.6,71.4c-8.1,5.2-16.6,9.6-25.5,13.3
	c-21.9,9-45.3,13.5-69,13.5l-308.1-0.5l-0.4-0.2c-14.7-6.2-28.7-14-41.8-23.1c-116-81-170.4-281.9-91-374.3
	c3.8-4.4,7.9-8.6,12.2-12.4c55-48,124.7-25.2,252.4-25.1c46.9,0.1,70.9,0.1,106-5.1C515.5,23.5,565.7-17.2,639.8,8.1
	c12.7,4.4,24,8.2,36.3,18.2C749.9,85.8,707,239.4,700.8,261.6z"/>
<path class="st1" d="M573.3,453.2c-8.1,5.2-16.6,9.6-25.5,13.3c-21.9,9-45.3,13.5-69,13.5V239.1H170.3v240.2
	c-14.7-6.2-28.7-14-41.8-23.1V228.9c-0.1-1.8-0.4-12.5,8-20.8c10-10,23.5-7.7,24.7-7.5h138.1c4.2-12.4,12.6-22.9,23.9-29.5h-0.7
	l-37.1-87.9l64.6,80.4c21.7-26.6,43.4-53.2,65.1-79.9c-11.1,29.9-22.2,59.8-33.4,89.6c9.6,6.7,16.7,16.2,20.4,27.3h137.2
	c1.8-0.1,16.1-0.9,26.1,10.4c5,5.8,7.7,13.2,7.8,20.8C573.2,305.6,573.3,379.4,573.3,453.2z"/>
<path class="st1" d="M281.8,405.6v-95.8c0.1-2.2,0.6-6.7,3.8-9.8c5.1-4.9,15.3-4.7,23.8,2l71.2,41.6c5.8,3.3,9,9.8,8.2,16.5
	c-1.1,7.5-7.4,11.2-8.2,11.7l-72.1,43.5c-6.6,6.7-16.2,7.4-21.8,2.9C281.4,413.9,281.7,406.5,281.8,405.6z"/>
<circle class="st2" cx="526.7" cy="290.4" r="21.3"/>
<circle class="st2" cx="526.7" cy="351.1" r="21.3"/>
<circle class="st2" cx="526.7" cy="409.7" r="21.3"/>
<path class="st3" d="M908.7,129.8c-3.2-3-7.3-4.6-11.7-4.6h-73.7c-0.2,0-0.3,0-0.5,0c-3.9-0.5-7.8,0.5-11,2.8
	c-5.9,4.6-5.6,11.9-5.5,13c0,0.1,0,0.2,0,0.2v126.2c0,2,1.6,3.6,3.6,3.6l0,0h30.4c2,0,3.6-1.6,3.6-3.6l0,0v-38.1
	c0-1.7,1.2-3.2,2.9-3.5l60.7-11c3.7-0.7,6.4-3.9,6.4-7.6V141c0-0.1,0-0.1,0-0.2C913.5,136.6,911.7,132.7,908.7,129.8z M877,176.1
	c-0.1,1.4-0.4,2.8-0.8,4.2c-0.6,2.1-2.4,3.7-4.6,4l-20,2.5c-3,0.4-5.8-1.8-6.1-4.8c0-0.2,0-0.4,0-0.7v-12.1c0-3,2.4-5.4,5.4-5.5
	l20.1-0.5c2.6-0.1,4.8,1.7,5.5,4.1C877,170.3,877.2,173.2,877,176.1z"/>
<path class="st3" d="M1155.5,205c-1.5-2.1-3.4-3.8-5.6-5c-1.2-0.8-2.5-1.4-3.8-2c1.5-0.6,2.9-1.5,4.2-2.5c1.8-1.7,3.3-3.7,4.2-6
	c1.3-2.8,1.9-5.8,2-8.9c0-13.8,0-27.6,0-41.4c0-0.1,0-0.3,0-0.4c-0.4-2.4-1.4-4.7-2.7-6.7c-4.3-6.2-11.5-7.4-13.2-7.6h-73.7
	c-0.1,0-0.3,0-0.4,0c-8.3,1.4-14.6,8.1-15.4,16.4c0,0.1,0,0.2,0,0.3V269c0,1.4,1.1,2.5,2.5,2.5l32,0.2c1.4,0,2.5-1.1,2.5-2.5
	c0,0,0,0,0,0v-39.5c0-1.3,0.9-2.3,2.2-2.5l26.5-3.5c1.4-0.2,2.6,0.8,2.8,2.2c0,0.1,0,0.2,0,0.3v44.1c0,1.4,1.1,2.5,2.5,2.5
	c0,0,0,0,0,0h33.2c1.4,0,2.5-1.1,2.5-2.5c0,0,0,0,0,0v-58.9C1157.6,209.2,1156.8,207,1155.5,205z M1120.1,175.3
	c-0.2,2.3-0.8,4.6-1.6,6.8c-0.3,0.7-0.9,1.1-1.6,1.2l-23.4,2.9c-2.4,0.3-4.7-1.4-5-3.9c0-0.2,0-0.4,0-0.6V165c0-1.1,0.8-1.9,1.9-1.9
	l26.3-0.6c0.8,0,1.6,0.5,1.8,1.2C1119.9,167.4,1120.5,171.4,1120.1,175.3z"/>
<path class="st3" d="M1284.7,149.8c0.6-0.1,1-0.6,1-1.2c0-4.9-1.5-9.6-4.2-13.7c-3.9-5.6-9.8-9.5-16.5-10.8c-0.1,0-0.2,0-0.2,0h-72
	c-8.5,0.9-15.3,7.4-16.7,15.8c0,0.1,0,0.1,0,0.2v85.3c0,0.7,0.5,1.2,1.2,1.2c0.1,0,0.1,0,0.2,0l64.9-10.6c0.6-0.1,1.3,0.3,1.4,1
	c0,0.1,0,0.1,0,0.2v14c0,0.6-0.4,1.1-1,1.2l-66.7,13c-0.6,0.1-1,0.6-1,1.2v24.8c0,0.7,0.5,1.2,1.2,1.2h107c0.7,0,1.2-0.5,1.2-1.2
	c0,0,0,0,0,0V170.1c0-0.7-0.5-1.2-1.2-1.2c-0.1,0-0.1,0-0.2,0l-67.2,11.6c-0.7,0.1-1.3-0.3-1.4-1c0-0.1,0-0.1,0-0.2v-15.8
	c0-0.6,0.4-1.1,1-1.2L1284.7,149.8z"/>
<path class="st3" d="M1428,178.4v-51.2c0-1.3,1-2.3,2.3-2.3c0,0,0,0,0,0h102.3c1.3,0,2.3,1,2.3,2.3c0,0,0,0,0,0v34.8
	c0,1.1-0.8,2.1-1.9,2.3l-31.2,5.4c-1.1,0.2-1.9,1.2-1.9,2.3v97.4c0,1.3-1,2.3-2.3,2.3c0,0,0,0,0,0h-31.9c-1.3,0-2.3-1-2.3-2.3v-90.9
	c0-1.3-1-2.3-2.3-2.3c-0.1,0-0.2,0-0.3,0l-30,4.5c-1.3,0.2-2.4-0.6-2.6-1.9C1428,178.6,1428,178.5,1428,178.4z"/>
<path class="st3" d="M1595,178.4v-51.2c0-1.3,1-2.3,2.3-2.3c0,0,0,0,0,0h102.3c1.3,0,2.3,1,2.3,2.3c0,0,0,0,0,0v34.8
	c0,1.1-0.8,2.1-1.9,2.3l-31.2,5.4c-1.1,0.2-1.9,1.2-1.9,2.3v97.4c0,1.3-1,2.3-2.3,2.3c0,0,0,0,0,0h-31.9c-1.3,0-2.3-1-2.3-2.3
	c0,0,0,0,0,0v-90.9c0-1.3-1-2.3-2.3-2.3c-0.1,0-0.2,0-0.3,0l-30,4.5c-1.3,0.2-2.4-0.6-2.6-1.9C1595,178.6,1595,178.5,1595,178.4z"/>
<path class="st3" d="M1406.1,131.2c-3.2-3.6-7.7-5.8-12.6-6.2h-70.1c-6.4,0.2-12.4,3.1-16.6,7.8c-3.5,4.2-5.4,9.5-5.3,15v121.7
	c0,1.2,1,2.2,2.2,2.2h35.5c1.2,0,2.2-1,2.2-2.2v-39.4c0-1.1,0.8-2,1.9-2.2l26.2-3.8c1.2-0.2,2.3,0.7,2.5,1.8c0,0.1,0,0.2,0,0.3v43
	c0,1.2,1,2.2,2.2,2.2h34.3c1.2,0,2.2-1,2.2-2.2V143.4C1410.7,138.9,1409.1,134.6,1406.1,131.2z M1373.1,175.9
	c-0.2,2.3-0.8,4.6-1.6,6.7c-0.3,0.7-0.9,1.1-1.6,1.2l-20.9,2.6c-3.6,0.5-7-2.1-7.4-5.8c0-0.3-0.1-0.5-0.1-0.8v-14.3
	c0-1,0.8-1.9,1.9-1.9l26.3-0.6c0.8,0,1.6,0.5,1.8,1.2C1373,168,1373.6,172,1373.1,175.9L1373.1,175.9z"/>
<path class="st3" d="M926.8,267.8V141.1c0-0.6,0.1-1.2,0.4-1.7c1.1-2.4,2.6-4.7,4.5-6.6c8.7-9.3,22.2-9.2,28.8-8.4
	c2.1,0.2,3.7,2,3.7,4.1V214c0,2.3,1.9,4.1,4.2,4.1c0.3,0,0.5,0,0.8-0.1l23.5-4.5c1.9-0.4,3.4-2.1,3.4-4.1v-81.2c0-2.2,1.7-4,3.8-4.1
	c7.4-0.6,22.5-0.3,30.5,9.8c0.8,1,1.6,2.2,2.2,3.4c0.3,0.6,0.5,1.3,0.5,1.9v128.3c0,2.3-1.8,4.1-4.1,4.1c0,0,0,0,0,0l-97.8,0.3
	C928.7,271.9,926.9,270.1,926.8,267.8C926.8,267.8,926.8,267.8,926.8,267.8z"/>
<path class="st3" d="M1563.5,245.7h10.8c4.2,0,7.6,3.4,7.6,7.6v10.8c0,4.2-3.4,7.6-7.6,7.6h-10.8c-4.2,0-7.6-3.4-7.6-7.6v-10.8
	C1555.9,249.1,1559.3,245.7,1563.5,245.7z"/>
<path class="st3" d="M1758.8,271.4l-34.7-121c0-0.1-0.1-0.3-0.1-0.4c0-2.7,0.3-11.1,6.5-18.1c6.5-7.3,17-10.3,27.3-8
	c0.5,0.1,0.9,0.5,1,1l26,97.8l24.7-96.9c0.1-0.5,0.5-0.9,1.1-1c3.2-0.7,13.7-2.4,22.6,4.8c7.6,6.2,11.1,16,9.2,25.6c0,0,0,0.1,0,0.1
	c-9.9,38.7-19.8,77.3-29.7,116c-0.2,0.6-0.7,1.1-1.4,1.1h-51.3C1759.5,272.4,1759,272,1758.8,271.4z"/>
<g class="st4">
	<path class="st5" d="M806.9,376.4l16.1-45.7h9l16.1,45.7h-7.7l-3.5-10.2h-18.6l-3.6,10.2H806.9z M820.3,359.7h14.3l-8.1-23.9h2
		L820.3,359.7z"/>
	<path class="st5" d="M859,376.4v-45.7h7.2v39.3H886v6.4H859z"/>
	<path class="st5" d="M897.6,376.4v-45.7h30.1v6.4h-22.9v13.1h21.7v6.4h-21.7v13.3h22.9v6.4H897.6z"/>
	<path class="st5" d="M940,376.4v-45.7h6.8l17.2,23.8h-3.4l16.9-23.8h6.8v45.7H977v-37.2l2.7,0.7l-17.2,23.6h-0.7l-16.9-23.6
		l2.4-0.7v37.2H940z"/>
	<path class="st5" d="M1007.2,376.4v-39.3h-12.2v-6.4h31.3v6.4h-12v39.3H1007.2z"/>
	<path class="st5" d="M1049.5,376.4l-16.2-45.7h7.8l13.3,39h-1.5l13.2-39h7.8l-16.2,45.7H1049.5z"/>
	<path class="st5" d="M1155.7,377.1c-3.3,0-6.4-0.6-9.2-1.8c-2.8-1.2-5.3-2.8-7.5-5c-2.1-2.1-3.8-4.6-5-7.5c-1.2-2.9-1.8-6-1.8-9.4
		c0-3.4,0.6-6.5,1.8-9.4c1.2-2.9,2.9-5.4,5-7.5c2.1-2.1,4.6-3.7,7.5-4.9c2.9-1.2,6-1.7,9.3-1.7c3.4,0,6.5,0.6,9.3,1.7
		c2.8,1.2,5.3,2.8,7.5,4.9c2.1,2.1,3.8,4.6,5,7.5c1.2,2.9,1.8,6,1.8,9.4c0,3.4-0.6,6.5-1.8,9.4c-1.2,2.9-2.9,5.4-5,7.5
		c-2.1,2.1-4.6,3.8-7.5,5C1162.1,376.5,1159,377.1,1155.7,377.1z M1155.7,370.5c2.4,0,4.6-0.4,6.5-1.3c2-0.9,3.7-2.1,5.2-3.6
		s2.6-3.3,3.4-5.4c0.8-2.1,1.2-4.3,1.2-6.7s-0.4-4.6-1.2-6.7s-2-3.8-3.4-5.4s-3.2-2.8-5.2-3.6c-2-0.9-4.2-1.3-6.5-1.3
		c-2.4,0-4.6,0.4-6.5,1.3s-3.7,2.1-5.2,3.6s-2.6,3.4-3.4,5.4s-1.2,4.3-1.2,6.7s0.4,4.7,1.2,6.7c0.8,2.1,1.9,3.9,3.4,5.4
		s3.2,2.7,5.2,3.6C1151.2,370.1,1153.4,370.5,1155.7,370.5z"/>
	<path class="st5" d="M1192.9,376.4v-45.7h29.8v6.4h-22.5v13.7h20.1v6.4h-20.1v19.1H1192.9z"/>
	<path class="st5" d="M1234.2,376.4v-45.7h29.8v6.4h-22.5v13.7h20.1v6.4h-20.1v19.1H1234.2z"/>
	<path class="st5" d="M1275.6,376.4v-45.7h7.2v45.7H1275.6z"/>
	<path class="st5" d="M1319.1,377.1c-3.2,0-6.2-0.6-9-1.8c-2.8-1.2-5.2-2.8-7.2-4.9c-2-2.1-3.6-4.6-4.8-7.5c-1.1-2.9-1.7-6-1.7-9.5
		c0-3.4,0.6-6.5,1.7-9.4c1.1-2.9,2.7-5.4,4.8-7.5c2-2.1,4.4-3.7,7.2-4.9s5.7-1.7,9-1.7c3.2,0,6.1,0.6,8.7,1.7
		c2.6,1.1,4.7,2.5,6.5,4.3c1.8,1.8,3,3.7,3.8,5.8l-6.5,3.1c-1-2.5-2.5-4.4-4.7-6c-2.1-1.5-4.7-2.3-7.8-2.3c-3,0-5.7,0.7-8,2.1
		c-2.3,1.4-4.1,3.4-5.4,6c-1.3,2.5-1.9,5.5-1.9,8.9c0,3.4,0.6,6.4,1.9,8.9c1.3,2.6,3.1,4.5,5.4,6s5,2.1,8,2.1c3,0,5.6-0.8,7.8-2.3
		c2.1-1.5,3.7-3.5,4.7-6l6.5,3.1c-0.8,2-2,4-3.8,5.8c-1.8,1.8-3.9,3.3-6.5,4.4C1325.2,376.6,1322.4,377.1,1319.1,377.1z"/>
	<path class="st5" d="M1351,376.4v-45.7h7.2v45.7H1351z"/>
	<path class="st5" d="M1369.2,376.4l16.1-45.7h9l16.1,45.7h-7.7l-3.5-10.2h-18.6l-3.6,10.2H1369.2z M1382.6,359.7h14.3l-8.1-23.9h2
		L1382.6,359.7z"/>
	<path class="st5" d="M1421.2,376.4v-45.7h7.2v39.3h19.8v6.4H1421.2z"/>
	<path class="st5" d="M1508.6,376.4v-45.7h16.6c3.1,0,5.8,0.6,8.1,1.7c2.3,1.1,4.2,2.8,5.5,4.9c1.3,2.1,2,4.7,2,7.7
		c0,3.2-0.8,5.9-2.4,8.1c-1.6,2.2-3.7,3.9-6.4,4.9l10.6,18.4h-8.2l-11.2-19.9l4.7,2.8h-12.1v17.2H1508.6z M1515.9,352.8h9.5
		c1.7,0,3.1-0.3,4.4-1c1.2-0.7,2.2-1.6,2.9-2.7c0.7-1.2,1-2.5,1-4.1s-0.3-3-1-4.1s-1.6-2.1-2.9-2.7c-1.2-0.6-2.7-1-4.4-1h-9.5V352.8
		z"/>
	<path class="st5" d="M1554.3,376.4v-45.7h30.1v6.4h-22.9v13.1h21.7v6.4h-21.7v13.3h22.9v6.4H1554.3z"/>
	<path class="st5" d="M1612.7,377.1c-2.9,0-5.5-0.5-8-1.6c-2.5-1.1-4.5-2.6-6.3-4.4c-1.7-1.9-3-4.1-3.8-6.5l6.1-2.6
		c1.1,2.8,2.7,5,4.8,6.5c2.1,1.5,4.6,2.3,7.4,2.3c1.6,0,3.1-0.3,4.3-0.8c1.2-0.5,2.2-1.2,2.9-2.2c0.7-0.9,1-2,1-3.3
		c0-1.7-0.5-3-1.4-4c-0.9-1-2.3-1.8-4.2-2.3l-8.6-2.7c-3.4-1.1-6.1-2.7-7.9-4.9c-1.8-2.2-2.7-4.8-2.7-7.7c0-2.6,0.6-4.8,1.9-6.8
		c1.3-1.9,3-3.5,5.2-4.6c2.2-1.1,4.8-1.7,7.6-1.7c2.7,0,5.2,0.5,7.5,1.4c2.2,1,4.2,2.3,5.8,4c1.6,1.7,2.8,3.6,3.5,5.8l-6,2.6
		c-0.9-2.4-2.3-4.3-4.2-5.6s-4.1-2-6.6-2c-1.5,0-2.8,0.3-4,0.8c-1.1,0.5-2,1.2-2.7,2.2c-0.6,1-1,2.1-1,3.3c0,1.5,0.5,2.8,1.4,3.9
		c0.9,1.1,2.4,2,4.3,2.6l8,2.5c3.6,1.1,6.4,2.7,8.2,4.8c1.8,2.1,2.8,4.6,2.8,7.7c0,2.5-0.7,4.8-2,6.8c-1.3,2-3.2,3.5-5.5,4.6
		S1615.8,377.1,1612.7,377.1z"/>
	<path class="st5" d="M1657.9,377.1c-2.9,0-5.5-0.5-8-1.6c-2.5-1.1-4.5-2.6-6.3-4.4c-1.7-1.9-3-4.1-3.8-6.5l6.1-2.6
		c1.1,2.8,2.7,5,4.8,6.5c2.1,1.5,4.6,2.3,7.4,2.3c1.6,0,3.1-0.3,4.3-0.8c1.2-0.5,2.2-1.2,2.9-2.2c0.7-0.9,1-2,1-3.3
		c0-1.7-0.5-3-1.4-4c-0.9-1-2.3-1.8-4.2-2.3l-8.6-2.7c-3.4-1.1-6.1-2.7-7.9-4.9c-1.8-2.2-2.7-4.8-2.7-7.7c0-2.6,0.6-4.8,1.9-6.8
		c1.3-1.9,3-3.5,5.2-4.6c2.2-1.1,4.8-1.7,7.6-1.7c2.7,0,5.2,0.5,7.5,1.4c2.2,1,4.2,2.3,5.8,4c1.6,1.7,2.8,3.6,3.5,5.8l-6,2.6
		c-0.9-2.4-2.3-4.3-4.2-5.6s-4.1-2-6.6-2c-1.5,0-2.8,0.3-4,0.8c-1.1,0.5-2,1.2-2.7,2.2c-0.6,1-1,2.1-1,3.3c0,1.5,0.5,2.8,1.4,3.9
		c0.9,1.1,2.4,2,4.3,2.6l8,2.5c3.6,1.1,6.4,2.7,8.2,4.8c1.8,2.1,2.8,4.6,2.8,7.7c0,2.5-0.7,4.8-2,6.8c-1.3,2-3.2,3.5-5.5,4.6
		S1661,377.1,1657.9,377.1z"/>
	<path class="st5" d="M1687.2,376.4v-45.7h30.1v6.4h-22.9v13.1h21.7v6.4h-21.7v13.3h22.9v6.4H1687.2z"/>
	<path class="st5" d="M1729.6,376.4v-45.7h7.2v39.3h19.8v6.4H1729.6z"/>
	<path class="st5" d="M1768.2,376.4v-45.7h30.1v6.4h-22.9v13.1h21.7v6.4h-21.7v13.3h22.9v6.4H1768.2z"/>
	<path class="st5" d="M1810.6,376.4v-45.7h16.6c3.1,0,5.8,0.6,8.1,1.7c2.3,1.1,4.2,2.8,5.5,4.9c1.3,2.1,2,4.7,2,7.7
		c0,3.2-0.8,5.9-2.4,8.1c-1.6,2.2-3.7,3.9-6.4,4.9l10.6,18.4h-8.2l-11.2-19.9l4.7,2.8h-12.1v17.2H1810.6z M1817.8,352.8h9.5
		c1.7,0,3.1-0.3,4.4-1c1.2-0.7,2.2-1.6,2.9-2.7c0.7-1.2,1-2.5,1-4.1s-0.3-3-1-4.1s-1.6-2.1-2.9-2.7c-1.2-0.6-2.7-1-4.4-1h-9.5V352.8
		z"/>
</g>
</svg>
