<svg width="29" height="28" viewBox="0 0 29 28" fill="none" xmlns="http://www.w3.org/2000/svg">
<path fill-rule="evenodd" clip-rule="evenodd" d="M19.0276 8.28042C19.0276 10.8073 16.9791 12.8558 14.4523 12.8558C11.9254 12.8558 9.87695 10.8073 9.87695 8.28042C9.87695 5.75353 11.9254 3.70508 14.4523 3.70508C16.9791 3.70508 19.0276 5.75353 19.0276 8.28042ZM16.74 8.28042C16.74 9.54387 15.7158 10.5681 14.4523 10.5681C13.1888 10.5681 12.1646 9.54387 12.1646 8.28042C12.1646 7.01697 13.1888 5.99275 14.4523 5.99275C15.7158 5.99275 16.74 7.01697 16.74 8.28042Z" fill="#8F92A1"/>
<path fill-rule="evenodd" clip-rule="evenodd" d="M19.0272 17.4315C19.0272 16.7998 18.5151 16.2877 17.8834 16.2877H11.0204C10.3887 16.2877 9.87654 16.7998 9.87654 17.4315V24.2945H7.58887V17.4315C7.58887 15.5363 9.12521 14 11.0204 14H17.8834C19.7786 14 21.3149 15.5363 21.3149 17.4315V24.2945H19.0272V17.4315Z" fill="#8F92A1"/>
</svg>
