<svg width="24" height="25" viewBox="0 0 24 25" fill="none" xmlns="http://www.w3.org/2000/svg">
<path d="M11.7776 6.41943H21.5828" stroke="#3D5CB7" stroke-width="1.47078" stroke-miterlimit="10" stroke-linecap="round" stroke-linejoin="round"/>
<path d="M13.9543 2.92822H19.406C21.1513 2.92822 21.5828 3.35965 21.5828 5.08536V9.1153C21.5828 10.841 21.1513 11.2724 19.406 11.2724H13.9543C12.209 11.2724 11.7776 10.841 11.7776 9.1153V5.08536C11.7776 3.35965 12.209 2.92822 13.9543 2.92822Z" stroke="#3D5CB7" stroke-width="1.47078" stroke-linecap="round" stroke-linejoin="round"/>
<path d="M1.97241 17.6953H11.7776" stroke="#3D5CB7" stroke-width="1.47078" stroke-miterlimit="10" stroke-linecap="round" stroke-linejoin="round"/>
<path d="M4.14916 14.2046H9.60085C11.3462 14.2046 11.7776 14.636 11.7776 16.3617V20.3917C11.7776 22.1174 11.3462 22.5488 9.60085 22.5488H4.14916C2.40384 22.5488 1.97241 22.1174 1.97241 20.3917V16.3617C1.97241 14.636 2.40384 14.2046 4.14916 14.2046Z" stroke="#3D5CB7" stroke-width="1.47078" stroke-linecap="round" stroke-linejoin="round"/>
<path d="M21.5828 15.6753C21.5828 19.4699 18.5138 22.5389 14.7192 22.5389L15.7487 20.823" stroke="#3D5CB7" stroke-width="1.47078" stroke-linecap="round" stroke-linejoin="round"/>
<path d="M1.97241 9.79185C1.97241 5.99725 5.04144 2.92822 8.83604 2.92822L7.80651 4.64413" stroke="#3D5CB7" stroke-width="1.47078" stroke-linecap="round" stroke-linejoin="round"/>
</svg>
