<svg id="Layer_1" data-name="Layer 1" xmlns="http://www.w3.org/2000/svg" xmlns:xlink="http://www.w3.org/1999/xlink" viewBox="0 0 1842.95 479.95"><defs><style>.cls-1{fill:url(#linear-gradient);}.cls-2{fill:#000102;}.cls-3{fill:#1994d0;}.cls-4{fill:#1794d6;}.cls-5{font-size:61.37px;fill:#ef5764;font-family:PlusJakartaSans-SemiBold, Plus Jakarta Sans;font-weight:600;letter-spacing:0.09em;}</style><linearGradient id="linear-gradient" x1="493.92" y1="91.22" x2="493.92" y2="571.18" gradientUnits="userSpaceOnUse"><stop offset="0" stop-color="#7dc6e9"/><stop offset="1" stop-color="#1794d6"/></linearGradient></defs><path class="cls-1" d="M835.29,352.79A369.33,369.33,0,0,1,776.42,473c-20.4,27.26-39.52,52.81-68.58,71.42a161.39,161.39,0,0,1-25.54,13.3,180.6,180.6,0,0,1-69,13.45l-308.15-.54-.36-.15a231,231,0,0,1-41.76-23.09C147,466.39,92.66,265.51,172,173.09a118.83,118.83,0,0,1,12.25-12.37c55-48,124.72-25.21,252.37-25.06,46.88.06,70.93.08,106-5.08C650,114.77,700.22,74,774.29,99.35c12.71,4.36,24,8.24,36.31,18.16C884.39,177,841.5,330.57,835.29,352.79Z" transform="translate(-134.53 -91.22)"/><path class="cls-2" d="M707.84,544.43a161.39,161.39,0,0,1-25.54,13.3,180.6,180.6,0,0,1-69,13.45V330.28H304.82V570.49a231,231,0,0,1-41.76-23.09V320.1c-.07-1.78-.35-12.48,8-20.8,10-9.95,23.46-7.74,24.69-7.51h138.1a54.37,54.37,0,0,1,23.87-29.52l-.69,0L419.9,174.39l64.63,80.36q32.57-39.93,65.12-79.88Q533,219.69,516.28,264.49a54.19,54.19,0,0,1,20.42,27.3H673.87c1.76-.12,16.13-.87,26.11,10.41A31.92,31.92,0,0,1,707.73,323Q707.78,433.71,707.84,544.43Z" transform="translate(-134.53 -91.22)"/><path class="cls-2" d="M416.29,496.81V401c.07-2.17.56-6.66,3.83-9.76,5.12-4.88,15.31-4.69,23.76,2l71.17,41.64a16.65,16.65,0,0,1,8.23,16.46c-1.1,7.49-7.42,11.22-8.23,11.68l-72.14,43.5c-6.61,6.72-16.23,7.43-21.76,2.94C415.89,505.15,416.23,497.72,416.29,496.81Z" transform="translate(-134.53 -91.22)"/><circle class="cls-3" cx="526.72" cy="290.37" r="21.3"/><circle class="cls-3" cx="526.72" cy="351.14" r="21.3"/><circle class="cls-3" cx="526.72" cy="409.7" r="21.3"/><path class="cls-4" d="M1043.27,221.05a17,17,0,0,0-11.67-4.6H957.86a4.38,4.38,0,0,1-.51,0,15,15,0,0,0-11,2.8c-5.91,4.57-5.62,11.92-5.54,13a2.18,2.18,0,0,1,0,.25V358.67a3.57,3.57,0,0,0,3.57,3.57h30.4a3.57,3.57,0,0,0,3.57-3.57V320.54a3.56,3.56,0,0,1,2.94-3.51L1042,306a7.74,7.74,0,0,0,6.36-7.61V232.22a1.7,1.7,0,0,0,0-.22A16.89,16.89,0,0,0,1043.27,221.05Zm-31.78,46.3a24.71,24.71,0,0,1-.79,4.23,5.49,5.49,0,0,1-4.62,4l-20,2.5a5.5,5.5,0,0,1-6.18-5.45V260.51a5.5,5.5,0,0,1,5.37-5.5l20.08-.47a5.48,5.48,0,0,1,5.46,4.14A25.47,25.47,0,0,1,1011.49,267.35Z" transform="translate(-134.53 -91.22)"/><path class="cls-4" d="M1290.07,296.25a17.44,17.44,0,0,0-5.63-5,26.49,26.49,0,0,0-3.85-2,15.11,15.11,0,0,0,4.16-2.54,16.39,16.39,0,0,0,4.21-6,22.64,22.64,0,0,0,2-8.87q0-20.67,0-41.35a3.25,3.25,0,0,0,0-.44,17.12,17.12,0,0,0-2.73-6.69c-4.3-6.23-11.46-7.37-13.2-7.59h-73.65a2.73,2.73,0,0,0-.41,0,18.61,18.61,0,0,0-15.45,16.42,2.26,2.26,0,0,0,0,.26V360.19a2.52,2.52,0,0,0,2.51,2.52l32,.22a2.53,2.53,0,0,0,2.54-2.53V320.92a2.52,2.52,0,0,1,2.2-2.5l26.5-3.48a2.52,2.52,0,0,1,2.85,2.5v44.14a2.52,2.52,0,0,0,2.53,2.52h33.18a2.52,2.52,0,0,0,2.53-2.52V302.71A14,14,0,0,0,1290.07,296.25Zm-35.45-29.73a26,26,0,0,1-1.62,6.75,2,2,0,0,1-1.57,1.22l-23.36,2.92a4.45,4.45,0,0,1-5-4.42V256.2a1.93,1.93,0,0,1,1.89-1.93l26.26-.62a1.94,1.94,0,0,1,1.85,1.24A25.87,25.87,0,0,1,1254.62,266.52Z" transform="translate(-134.53 -91.22)"/><path class="cls-4" d="M1419.19,241a1.21,1.21,0,0,0,1-1.19,25.36,25.36,0,0,0-4.16-13.73,26.09,26.09,0,0,0-16.47-10.8.9.9,0,0,0-.23,0h-72a19,19,0,0,0-16.73,15.79,1.34,1.34,0,0,0,0,.2v85.32a1.19,1.19,0,0,0,1.39,1.18l64.93-10.6a1.19,1.19,0,0,1,1.39,1.18v14a1.2,1.2,0,0,1-1,1.17l-66.7,13a1.21,1.21,0,0,0-1,1.18v24.78a1.2,1.2,0,0,0,1.2,1.2h107a1.19,1.19,0,0,0,1.19-1.2V261.28a1.19,1.19,0,0,0-1.4-1.18l-67.21,11.61a1.2,1.2,0,0,1-1.4-1.18V254.76a1.19,1.19,0,0,1,1-1.18Z" transform="translate(-134.53 -91.22)"/><path class="cls-4" d="M1562.55,269.59V218.37a2.3,2.3,0,0,1,2.3-2.31h102.26a2.3,2.3,0,0,1,2.31,2.31v34.78a2.31,2.31,0,0,1-1.91,2.27l-31.2,5.45a2.3,2.3,0,0,0-1.9,2.27v97.42a2.3,2.3,0,0,1-2.31,2.3h-31.93a2.31,2.31,0,0,1-2.31-2.3V269.7a2.3,2.3,0,0,0-2.64-2.28l-30,4.45A2.3,2.3,0,0,1,1562.55,269.59Z" transform="translate(-134.53 -91.22)"/><path class="cls-4" d="M1729.5,269.59V218.37a2.3,2.3,0,0,1,2.3-2.31h102.26a2.3,2.3,0,0,1,2.3,2.31v34.78a2.31,2.31,0,0,1-1.9,2.27l-31.2,5.45a2.3,2.3,0,0,0-1.9,2.27v97.42a2.3,2.3,0,0,1-2.31,2.3h-31.93a2.3,2.3,0,0,1-2.31-2.3V269.7a2.3,2.3,0,0,0-2.64-2.28l-30,4.45A2.3,2.3,0,0,1,1729.5,269.59Z" transform="translate(-134.53 -91.22)"/><path class="cls-4" d="M1540.67,222.46a19,19,0,0,0-12.58-6.24H1458a23.19,23.19,0,0,0-16.58,7.83,22.8,22.8,0,0,0-5.3,15V360.74a2.19,2.19,0,0,0,2.19,2.19h35.47a2.19,2.19,0,0,0,2.19-2.19V321.3a2.19,2.19,0,0,1,1.88-2.17l26.24-3.75a2.18,2.18,0,0,1,2.49,2.17v43a2.19,2.19,0,0,0,2.19,2.19h34.33a2.19,2.19,0,0,0,2.19-2.19V234.64A18.84,18.84,0,0,0,1540.67,222.46Zm-33,44.68a25.65,25.65,0,0,1-1.61,6.74,2,2,0,0,1-1.57,1.23l-20.89,2.61a6.65,6.65,0,0,1-7.48-6.59V256.82a1.93,1.93,0,0,1,1.88-1.93l26.27-.62a1.92,1.92,0,0,1,1.85,1.24A25.73,25.73,0,0,1,1507.71,267.14Z" transform="translate(-134.53 -91.22)"/><path class="cls-4" d="M1061.38,359V232.3a4.11,4.11,0,0,1,.36-1.69,25.35,25.35,0,0,1,4.47-6.65c8.69-9.27,22.17-9.17,28.79-8.45a4.14,4.14,0,0,1,3.69,4.12v85.54a4.15,4.15,0,0,0,4.93,4.07l23.5-4.55a4.14,4.14,0,0,0,3.36-4.06V219.46a4.14,4.14,0,0,1,3.84-4.13c7.45-.55,22.53-.3,30.51,9.77a21.74,21.74,0,0,1,2.17,3.35,4.13,4.13,0,0,1,.48,1.94V358.72a4.13,4.13,0,0,1-4.13,4.14l-97.81.29A4.15,4.15,0,0,1,1061.38,359Z" transform="translate(-134.53 -91.22)"/><rect class="cls-4" x="1555.92" y="245.68" width="26.04" height="26.04" rx="7.6"/><path class="cls-4" d="M1893.31,362.59l-34.74-121a1.21,1.21,0,0,1-.06-.38c0-2.68.31-11.08,6.54-18.08,6.51-7.33,17-10.34,27.27-8a1.41,1.41,0,0,1,1,1l26,97.75L1944.07,217a1.42,1.42,0,0,1,1.06-1c3.17-.71,13.67-2.35,22.64,4.82a26.41,26.41,0,0,1,9.22,25.59.43.43,0,0,1,0,.11q-14.82,58-29.65,116a1.42,1.42,0,0,1-1.38,1.07h-51.26A1.43,1.43,0,0,1,1893.31,362.59Z" transform="translate(-134.53 -91.22)"/><text class="cls-5" transform="translate(806.26 376.38)"><tspan xml:space="preserve">ALEMTV   OFFICIAL   RESSELER</tspan></text></svg>