<?xml version="1.0" encoding="utf-8"?>
<!-- Generator: Adobe Illustrator 26.0.3, SVG Export Plug-In . SVG Version: 6.00 Build 0)  -->
<svg version="1.1" id="Layer_1" xmlns="http://www.w3.org/2000/svg" xmlns:xlink="http://www.w3.org/1999/xlink" x="0px" y="0px"
	 viewBox="0 0 2500 1520" style="enable-background:new 0 0 2500 1520;" xml:space="preserve">
<style type="text/css">
	.st0{fill:url(#SVGID_1_);}
	.st1{fill:#000102;}
	.st2{fill:#1994D0;}
</style>
<g>
	<linearGradient id="SVGID_1_" gradientUnits="userSpaceOnUse" x1="1258.1029" y1="291.136" x2="1258.1029" y2="1251.0386">
		<stop  offset="0" style="stop-color:#7DC6E9"/>
		<stop  offset="1" style="stop-color:#1794D6"/>
	</linearGradient>
	<path class="st0" d="M1940.8,814.3c-36.3,129.8-100.4,217.3-117.7,240.4c-40.8,54.5-79,105.6-137.2,142.8
		c-15.5,9.9-32.4,18.9-51.1,26.6c-54.5,22.5-104.5,26.9-138,26.9c-205.4-0.4-410.9-0.7-616.3-1.1c-0.2-0.1-0.5-0.2-0.7-0.3
		c-19-8.1-49.7-22.6-83.5-46.2c-232.2-162-340.8-563.8-182.1-748.6c7.3-8.6,15.3-16.7,24.5-24.7c109.9-96,249.4-50.4,504.7-50.1
		c93.8,0.1,141.9,0.2,212-10.2c214.7-31.6,315.2-113.2,463.3-62.5c25.4,8.7,48,16.5,72.6,36.3C2039,462.7,1953.3,769.8,1940.8,814.3
		z"/>
	<path class="st1" d="M1685.9,1197.5c-15.5,9.9-32.4,18.9-51.1,26.6c-54.5,22.5-104.5,26.9-138,26.9V769.2h-617v480.4
		c-19-8.1-49.7-22.6-83.5-46.2V748.9c-0.1-3.6-0.7-25,16-41.6c19.9-19.9,46.9-15.5,49.4-15H1138c8.3-25,25.5-45.9,47.7-59l-1.4-0.1
		c-24.7-58.6-49.5-117.1-74.3-175.7c43.1,53.6,86.2,107.1,129.3,160.7c43.4-53.2,86.8-106.5,130.2-159.8
		c-22.2,59.7-44.5,119.5-66.7,179.2c18.9,13.2,33.4,32.3,40.8,54.6H1618c3.5-0.2,32.3-1.7,52.2,20.8c14.9,16.8,15.5,36.4,15.5,41.6
		C1685.8,902.3,1685.9,1049.9,1685.9,1197.5z"/>
	<path class="st1" d="M1102.8,1102.3c0-63.9,0-127.8,0-191.7c0.1-4.3,1.1-13.3,7.7-19.5c10.2-9.7,30.6-9.4,47.5,4
		c47.4,27.8,94.9,55.5,142.3,83.3c11.8,7.1,18.3,20.1,16.5,32.9c-2.2,15-14.8,22.4-16.5,23.4c-48.1,29-96.2,58-144.3,87
		c-13.2,13.4-32.5,14.9-43.5,5.9C1102,1119,1102.7,1104.1,1102.8,1102.3z"/>
	<circle class="st2" cx="1592.8" cy="871.9" r="42.6"/>
	<circle class="st2" cx="1592.8" cy="993.4" r="42.6"/>
	<circle class="st2" cx="1592.8" cy="1110.5" r="42.6"/>
</g>
</svg>
